<?xml version="1.0"?>
<svg xmlns="http://www.w3.org/2000/svg" xmlns:xlink="http://www.w3.org/1999/xlink" xmlns:svgjs="http://svgjs.com/svgjs" version="1.1" width="512" height="512" x="0" y="0" viewBox="0 0 512 512" style="enable-background:new 0 0 512 512" xml:space="preserve" class=""><g>
<g xmlns="http://www.w3.org/2000/svg">
	<g>
		<path d="M381.815,210.771c-10.641-11.755-25.829-18.497-41.669-18.497c-15.84,0-31.029,6.742-41.67,18.497    c-2.779,3.07-2.544,7.812,0.526,10.592c3.069,2.781,7.813,2.543,10.592-0.526c7.805-8.62,18.94-13.565,30.552-13.565    c11.612,0,22.748,4.944,30.552,13.565c1.48,1.635,3.517,2.466,5.561,2.466c1.795,0,3.595-0.641,5.03-1.94    C384.359,218.584,384.595,213.842,381.815,210.771z" fill="#000000" data-original="#000000" style="" class=""/>
	</g>
</g>
<g xmlns="http://www.w3.org/2000/svg">
	<g>
		<path d="M213.416,210.776c-10.624-11.759-25.787-18.502-41.603-18.502s-30.979,6.744-41.603,18.502    c-2.776,3.072-2.537,7.815,0.537,10.591c3.072,2.776,7.815,2.535,10.591-0.537c7.786-8.617,18.894-13.56,30.475-13.56    s22.69,4.942,30.475,13.56c1.48,1.639,3.519,2.472,5.566,2.472c1.792,0,3.59-0.639,5.025-1.935    C215.952,218.591,216.192,213.849,213.416,210.776z" fill="#000000" data-original="#000000" style="" class=""/>
	</g>
</g>
<g xmlns="http://www.w3.org/2000/svg">
	<g>
		<path d="M436.914,82.385c-2.723-3.122-7.46-3.443-10.58-0.722c-3.121,2.722-3.443,7.459-0.722,10.58    c37.4,42.874,56.999,97.9,55.183,154.94c-1.823,57.31-25.169,111.213-65.737,151.781c-22.444,22.443-48.976,39.655-78.09,50.857    l19.301-13.786c5.891-4.207,9.408-11.041,9.408-18.281c0-7.309-3.4-13.95-9.329-18.225c-5.929-4.273-13.306-5.398-20.238-3.087    l-6.647,2.216l41.601-34.668c5.01-4.174,8.052-10.305,8.347-16.819c0.296-6.515-2.18-12.895-6.791-17.506    c-7.815-7.816-20.163-9.038-29.358-2.906l-31.621,21.08l28.838-34.606c7.759-9.31,7.147-22.795-1.422-31.363    c-4.397-4.397-10.243-6.819-16.461-6.819c-6.219,0-12.065,2.422-16.461,6.819l-30.993,30.993l20.014-37.169    c4.918-9.133,3.293-20.198-4.041-27.533c-4.814-4.815-11.472-7.278-18.259-6.759c-6.79,0.519-12.993,3.966-17.019,9.457    l-53.835,73.411v-9.698c0-9.27-5.909-17.469-14.703-20.399c-10.306-3.436-21.584,1.377-26.234,11.194l-31.344,66.171    c-7.219,15.239-10.211,31.703-9.248,47.846c-4.159-3.149-8.216-6.445-12.138-9.866c-3.121-2.722-7.857-2.4-10.58,0.722    c-2.723,3.121-2.4,7.858,0.722,10.58c8.052,7.024,16.634,13.549,25.515,19.416c4.457,15.877,12.895,30.719,25.055,42.88    c19.096,19.096,44.186,28.885,69.465,28.884c19.881-0.001,39.883-6.058,57.166-18.404l25.193-17.995    c0.106-0.016,0.212-0.025,0.319-0.045c47.267-9.008,90.307-31.827,124.468-65.987c43.274-43.274,68.177-100.775,70.122-161.908    C497.721,186.821,476.814,128.124,436.914,82.385z M266.966,481.392c-33.269,23.762-78.4,20.028-107.31-8.881    c-24.826-24.826-31.408-62.824-16.378-94.554l31.344-66.171c1.101-2.324,3.428-3.721,5.884-3.721c0.683,0,1.375,0.108,2.054,0.334    c2.661,0.887,4.448,3.367,4.448,6.172v32.604c0,3.242,2.084,6.118,5.166,7.127c3.081,1.01,6.463-0.077,8.379-2.692l67.382-91.883    c1.458-1.988,3.612-3.185,6.069-3.373c2.456-0.185,4.768,0.668,6.511,2.411c2.616,2.615,3.194,6.561,1.441,9.818l-44.237,82.154    c-1.764,3.275-0.859,7.351,2.126,9.571c2.985,2.221,7.148,1.917,9.778-0.714l67.121-67.121c1.564-1.564,3.644-2.426,5.856-2.426    s4.291,0.862,5.856,2.427c3.048,3.048,3.266,7.846,0.506,11.158l-61.937,74.324c-2.385,2.862-2.308,7.041,0.183,9.812    c2.491,2.771,6.638,3.294,9.737,1.228l74.64-49.76c3.268-2.179,7.657-1.744,10.434,1.033c1.663,1.663,2.52,3.872,2.414,6.222    c-0.106,2.35-1.161,4.472-2.966,5.978l-72.132,60.109c-2.769,2.309-3.504,6.26-1.751,9.41c1.755,3.148,5.501,4.605,8.922,3.464    l44.349-14.782c2.305-0.769,4.756-0.395,6.728,1.026c1.971,1.421,3.101,3.628,3.101,6.058c0,2.407-1.169,4.677-3.127,6.076    L266.966,481.392z" fill="#000000" data-original="#000000" style="" class=""/>
	</g>
</g>
<g xmlns="http://www.w3.org/2000/svg">
	<g>
		<path d="M413.522,58.993c-45.74-39.9-104.442-60.794-165.275-58.871C187.113,2.066,129.613,26.97,86.338,70.244    c-43.274,43.274-68.177,100.775-70.122,161.908c-1.936,60.84,18.973,119.536,58.871,165.276c1.483,1.7,3.562,2.57,5.654,2.57    c1.749,0,3.505-0.608,4.926-1.848c3.121-2.723,3.443-7.459,0.722-10.58c-37.4-42.875-56.999-97.901-55.184-154.94    c1.824-57.31,25.169-111.213,65.738-151.781c40.569-40.568,94.472-63.914,151.781-65.737    c57.031-1.827,112.064,17.783,154.94,55.183c3.12,2.722,7.858,2.399,10.58-0.722C416.967,66.452,416.644,61.716,413.522,58.993z" fill="#000000" data-original="#000000" style="" class=""/>
	</g>
</g>
<g xmlns="http://www.w3.org/2000/svg">
</g>
<g xmlns="http://www.w3.org/2000/svg">
</g>
<g xmlns="http://www.w3.org/2000/svg">
</g>
<g xmlns="http://www.w3.org/2000/svg">
</g>
<g xmlns="http://www.w3.org/2000/svg">
</g>
<g xmlns="http://www.w3.org/2000/svg">
</g>
<g xmlns="http://www.w3.org/2000/svg">
</g>
<g xmlns="http://www.w3.org/2000/svg">
</g>
<g xmlns="http://www.w3.org/2000/svg">
</g>
<g xmlns="http://www.w3.org/2000/svg">
</g>
<g xmlns="http://www.w3.org/2000/svg">
</g>
<g xmlns="http://www.w3.org/2000/svg">
</g>
<g xmlns="http://www.w3.org/2000/svg">
</g>
<g xmlns="http://www.w3.org/2000/svg">
</g>
<g xmlns="http://www.w3.org/2000/svg">
</g>
</g></svg>
