<?xml version="1.0"?>
<svg xmlns="http://www.w3.org/2000/svg" xmlns:xlink="http://www.w3.org/1999/xlink" xmlns:svgjs="http://svgjs.com/svgjs" version="1.1" width="512" height="512" x="0" y="0" viewBox="0 0 512 512" style="enable-background:new 0 0 512 512" xml:space="preserve" class=""><g>
<g xmlns="http://www.w3.org/2000/svg">
	<g>
		<path d="M256,420c-37.919,0-73.625-9.518-105-26.151V512l105-58.968L361,512V393.849C329.625,410.482,293.919,420,256,420z" fill="#7155f6" data-original="#000000" style="" class=""/>
	</g>
</g>
<g xmlns="http://www.w3.org/2000/svg">
	<g>
		<polygon points="283.217,188.057 264.687,185.435 256,168.252 247.313,185.435 228.783,188.057 242.157,200.801 238.92,219.302     256,210.527 273.08,219.302 269.843,200.801   " fill="#7155f6" data-original="#000000" style="" class=""/>
	</g>
</g>
<g xmlns="http://www.w3.org/2000/svg">
	<g>
		<path d="M256,90c-57.891,0-105,47.109-105,105s47.109,105,105,105s105-47.109,105-105S313.891,90,256,90z M313.07,273.56    L256,244.248l-57.07,29.312l10.913-62.124l-46.626-44.355l64.38-9.155L256,101.748l28.403,56.177l64.38,9.155l-46.626,44.356    L313.07,273.56z" fill="#7155f6" data-original="#000000" style="" class=""/>
	</g>
</g>
<g xmlns="http://www.w3.org/2000/svg">
	<g>
		<path d="M256,0C148.48,0,61,87.48,61,195s87.48,195,195,195s195-87.48,195-195S363.52,0,256,0z M256,330    c-74.443,0-135-60.557-135-135S181.557,60,256,60s135,60.557,135,135S330.443,330,256,330z" fill="#7155f6" data-original="#000000" style="" class=""/>
	</g>
</g>
<g xmlns="http://www.w3.org/2000/svg">
</g>
<g xmlns="http://www.w3.org/2000/svg">
</g>
<g xmlns="http://www.w3.org/2000/svg">
</g>
<g xmlns="http://www.w3.org/2000/svg">
</g>
<g xmlns="http://www.w3.org/2000/svg">
</g>
<g xmlns="http://www.w3.org/2000/svg">
</g>
<g xmlns="http://www.w3.org/2000/svg">
</g>
<g xmlns="http://www.w3.org/2000/svg">
</g>
<g xmlns="http://www.w3.org/2000/svg">
</g>
<g xmlns="http://www.w3.org/2000/svg">
</g>
<g xmlns="http://www.w3.org/2000/svg">
</g>
<g xmlns="http://www.w3.org/2000/svg">
</g>
<g xmlns="http://www.w3.org/2000/svg">
</g>
<g xmlns="http://www.w3.org/2000/svg">
</g>
<g xmlns="http://www.w3.org/2000/svg">
</g>
</g></svg>
