<?xml version="1.0"?>
<svg xmlns="http://www.w3.org/2000/svg" xmlns:xlink="http://www.w3.org/1999/xlink" xmlns:svgjs="http://svgjs.com/svgjs" version="1.1" width="512" height="512" x="0" y="0" viewBox="0 0 512 512.00059" style="enable-background:new 0 0 512 512" xml:space="preserve" class=""><g><path xmlns="http://www.w3.org/2000/svg" d="m229.394531 0c-95.785156 0-173.714843 77.929688-173.714843 173.714844 0 57.226562 28.199218 110.777344 75.441406 143.253906 4.21875 2.902344 6.738281 7.691406 6.738281 12.816406v55.273438c0 50.464844 41.058594 91.523437 91.535156 91.523437 50.472657 0 91.53125-41.058593 91.53125-91.523437v-55.273438c0-5.125 2.519531-9.914062 6.742188-12.816406 47.238281-32.476562 75.441406-86.027344 75.441406-143.253906 0-95.785156-77.929687-173.714844-173.714844-173.714844zm-81.964843 224.875c-34.695313 0-62.90625-28.222656-62.90625-62.90625 0-34.695312 28.210937-62.90625 62.90625-62.90625 34.683593 0 62.90625 28.210938 62.90625 62.90625 0 34.683594-28.222657 62.90625-62.90625 62.90625zm135.683593 166.621094c0 26.773437-21.773437 48.546875-48.546875 48.546875h-10.347656c-26.769531 0-48.546875-21.773438-48.546875-48.546875v-94.789063c0-26.769531 21.777344-48.546875 48.546875-48.546875h10.347656c26.773438 0 48.546875 21.777344 48.546875 48.546875zm28.242188-166.621094c-34.679688 0-62.90625-28.222656-62.90625-62.90625 0-34.695312 28.226562-62.90625 62.90625-62.90625 34.695312 0 62.90625 28.210938 62.90625 62.90625 0 34.683594-28.210938 62.90625-62.90625 62.90625zm0 0" fill="#5cc67a" data-original="#000000" style="" class=""/><path xmlns="http://www.w3.org/2000/svg" d="m147.429688 130.167969c-17.535157 0-31.800782 14.257812-31.800782 31.800781 0 17.53125 14.265625 31.800781 31.800782 31.800781 17.53125 0 31.800781-14.269531 31.800781-31.800781 0-17.542969-14.269531-31.800781-31.800781-31.800781zm0 0" fill="#5cc67a" data-original="#000000" style="" class=""/><path xmlns="http://www.w3.org/2000/svg" d="m311.355469 130.167969c-17.53125 0-31.800781 14.257812-31.800781 31.800781 0 17.53125 14.269531 31.800781 31.800781 31.800781 17.535156 0 31.800781-14.269531 31.800781-31.800781 0-17.542969-14.265625-31.800781-31.800781-31.800781zm0 0" fill="#5cc67a" data-original="#000000" style="" class=""/><path xmlns="http://www.w3.org/2000/svg" d="m234.566406 279.269531h-10.347656c-9.613281 0-17.441406 7.816407-17.441406 17.4375v94.789063c0 9.625 7.828125 17.441406 17.441406 17.441406h10.347656c9.613282 0 17.441406-7.816406 17.441406-17.441406v-94.789063c0-9.621093-7.828124-17.4375-17.441406-17.4375zm0 0" fill="#5cc67a" data-original="#000000" style="" class=""/><path xmlns="http://www.w3.org/2000/svg" d="m433.507812 350.234375c-11.980468-11.164063-31.480468-6.371094-36.898437 9.082031l-35.007813 99.894532c-7.246093 20.671874 3.636719 43.300781 24.308594 50.546874 20.671875 7.242188 43.304688-3.640624 50.546875-24.3125l17.839844-50.902343c10.75-30.664063 1.550781-63.488281-20.789063-84.308594zm0 0" fill="#5cc67a" data-original="#000000" style="" class=""/><path xmlns="http://www.w3.org/2000/svg" d="m62.175781 359.316406c-5.417969-15.453125-24.917969-20.246094-36.894531-9.082031-22.34375 20.820313-31.542969 53.640625-20.796875 84.308594l17.84375 50.902343c7.242187 20.671876 29.875 31.558594 50.546875 24.3125 20.671875-7.246093 31.554688-29.875 24.308594-50.546874 0-.003907-22.109375-63.085938-35.007813-99.894532zm0 0" fill="#5cc67a" data-original="#000000" style="" class=""/></g></svg>
